<svg id="logo-final" xmlns="http://www.w3.org/2000/svg" width="497" height="100" viewBox="0 0 497 100">
  <defs>
    <style>
      .cls-1, .cls-2 {
        fill: #ffffff;
      }

      .cls-2 {
        fill: #e33b28;
      }
    </style>
  </defs>
  <path id="minemo" class="cls-1" d="M166.557,44.558l-19.141-19.47H135.281v56.2H147.93V43.364l18.627,18.183,18.628-18.183V81.287h12.648v-56.2H185.7Zm53.764-20.869-0.006,0a7.473,7.473,0,0,0-2.354-1.321,9.743,9.743,0,0,0-6.057,0,7.421,7.421,0,0,0-2.36,1.325,5.895,5.895,0,0,0-2.1,4.549,5.835,5.835,0,0,0,.549,2.493,6.048,6.048,0,0,0,1.551,2.041,7.234,7.234,0,0,0,2.364,1.348,8.919,8.919,0,0,0,2.874.48h0.269a9.054,9.054,0,0,0,2.915-.481,7.228,7.228,0,0,0,2.365-1.349,6.067,6.067,0,0,0,1.55-2.04,5.842,5.842,0,0,0,.548-2.482A5.881,5.881,0,0,0,220.321,23.689Zm-11.371,57.6h11.93V38.426H208.95V81.287ZM276.306,43.4l-0.007-.007a19.669,19.669,0,0,0-7.154-4.28,26.826,26.826,0,0,0-8.868-1.421,30.113,30.113,0,0,0-7.446.97,31.876,31.876,0,0,0-6.637,2.62V38.421H234.265V79.838l-0.2,1.153,12.124,0.3V53.1a15.938,15.938,0,0,1,2.4-1.806,18.411,18.411,0,0,1,3.065-1.534,19.992,19.992,0,0,1,3.259-.951,16.5,16.5,0,0,1,3.222-.329,15.287,15.287,0,0,1,5.337.9,10.793,10.793,0,0,1,3.959,2.565,11.405,11.405,0,0,1,2.514,4.161,17.083,17.083,0,0,1,.9,5.75V81.279h11.894V60.219a25.8,25.8,0,0,0-1.692-9.726A19.787,19.787,0,0,0,276.306,43.4ZM336.4,44.514l0-.005a24.149,24.149,0,0,0-8.211-5.007,33.089,33.089,0,0,0-21.462-.014,24.349,24.349,0,0,0-8.045,4.843,20.982,20.982,0,0,0-5.055,7.034,20.338,20.338,0,0,0-1.762,8.349,20.991,20.991,0,0,0,1.84,8.764,19.761,19.761,0,0,0,5.472,7.112,26.351,26.351,0,0,0,8.916,4.714,39.668,39.668,0,0,0,11.535,1.718c0.232,0,.466,0,0.7-0.007,1.8,0,3.543-.084,5.195-0.246a44.3,44.3,0,0,0,4.73-.731,35.253,35.253,0,0,0,4.366-1.214,42.074,42.074,0,0,0,4.121-1.688l0.781-.371L335.4,68.348l-0.771.279a50.167,50.167,0,0,1-6.517,1.864,32.124,32.124,0,0,1-6.8.729,31.73,31.73,0,0,1-6.209-.591,19.817,19.817,0,0,1-4.871-1.653,12.344,12.344,0,0,1-3.413-2.468,8.449,8.449,0,0,1-1.373-1.856H343.2l0.093-.788c0.045-.4.077-0.839,0.089-1.32,0.011-.459.017-0.891,0.017-1.285a23.529,23.529,0,0,0-1.8-9.232A21.7,21.7,0,0,0,336.4,44.514Zm-30.984,10.3a8.99,8.99,0,0,1,1.076-1.632,10.9,10.9,0,0,1,2.747-2.384,14.989,14.989,0,0,1,3.928-1.677,19.115,19.115,0,0,1,5.038-.631,17.737,17.737,0,0,1,4.751.6,13.692,13.692,0,0,1,3.742,1.618,10.41,10.41,0,0,1,2.642,2.374,9.4,9.4,0,0,1,1.081,1.736h-25ZM428.873,43.4l-0.009-.009a19.59,19.59,0,0,0-7.247-4.283,29.047,29.047,0,0,0-9.3-1.418,33.307,33.307,0,0,0-4.73.34,25.222,25.222,0,0,0-4.566,1.111,28.188,28.188,0,0,0-4.465,2.013,34.649,34.649,0,0,0-3.888,2.532,19.062,19.062,0,0,0-6.722-4.381,25.7,25.7,0,0,0-9.207-1.622,29.659,29.659,0,0,0-7.316.951A27.511,27.511,0,0,0,365.1,41.22V38.414H353.167V80.382l0.018,0.478,0.6,0.427h11.324v-28.2a13.89,13.89,0,0,1,2.159-1.745,16.516,16.516,0,0,1,2.9-1.525,18.883,18.883,0,0,1,3.252-.982,13.752,13.752,0,0,1,3.359-.339,13,13,0,0,1,4.908.9,10.373,10.373,0,0,1,3.758,2.557,11.837,11.837,0,0,1,2.459,4.176,17.146,17.146,0,0,1,.9,5.75V81.286H400.7V52.962a10.135,10.135,0,0,1,1.96-1.829,13.334,13.334,0,0,1,2.691-1.487,14.979,14.979,0,0,1,2.971-.872,16.779,16.779,0,0,1,3.011-.28,12.636,12.636,0,0,1,4.836.894,10.48,10.48,0,0,1,3.729,2.559,11.8,11.8,0,0,1,2.457,4.176,17.086,17.086,0,0,1,.9,5.75V81.287h11.894V60.219a26.759,26.759,0,0,0-1.62-9.713A19.116,19.116,0,0,0,428.873,43.4ZM494.4,51.2l0-.008a20.778,20.778,0,0,0-5.276-7.057,25,25,0,0,0-8.229-4.731,34.249,34.249,0,0,0-21.47,0,25.045,25.045,0,0,0-8.218,4.73,20.789,20.789,0,0,0-5.277,7.063,21.2,21.2,0,0,0,0,17.316,20.766,20.766,0,0,0,5.275,7.058A24.989,24.989,0,0,0,459.43,80.3a34.234,34.234,0,0,0,21.47,0,24.906,24.906,0,0,0,8.219-4.728,20.753,20.753,0,0,0,5.277-7.062A21.19,21.19,0,0,0,494.4,51.2Zm-10.583,8.657a10.5,10.5,0,0,1-3.527,7.9,12.9,12.9,0,0,1-4.265,2.5,18.452,18.452,0,0,1-11.7.005,12.95,12.95,0,0,1-4.276-2.506,10.636,10.636,0,0,1,0-15.851,12.877,12.877,0,0,1,4.265-2.5,18.4,18.4,0,0,1,11.7,0,12.881,12.881,0,0,1,4.276,2.506A10.574,10.574,0,0,1,483.813,59.857Z" transform="translate(-0.188 -0.188)"/>
  <path id="icon" class="cls-2" d="M0.234,7.3a4.174,4.174,0,0,0-.016.735c0.065,28.745-.065,57.49,0,86.234a7.415,7.415,0,0,0,2.025,3.387,7.757,7.757,0,0,0,3.658,2.1c27.564,0.062,84.46-.011,86.059.024,0.086,0,.354-0.01.553-0.024a3.73,3.73,0,0,0,3.253-2.407,3.567,3.567,0,0,0-.786-3.9L50.78,49.191l6.287,9.341-3.035,3.036L38.407,45.926l4.56-4.556L6.537,4.895a3.558,3.558,0,0,0-3.87-.8A3.788,3.788,0,0,0,.921,5.421,3.9,3.9,0,0,0,.234,7.3ZM11.422,80.565L39.648,52.4,41.982,65.89,19.333,88.478Q15.295,84.606,11.422,80.565Z" transform="translate(-0.188 -0.188)"/>
  <path id="icon-2" data-name="icon" class="cls-1" d="M90.561,0.192C68.675,0.139,46.788.282,24.9,0.229a5.1,5.1,0,0,0-4.823,3.578,4.839,4.839,0,0,0,1.87,5.584A255.813,255.813,0,0,1,51.413,32.936l3.886-3.88A50.489,50.489,0,0,1,70.92,44.7l-3.866,3.866A250.822,250.822,0,0,1,90.592,77.812a4.84,4.84,0,0,0,5.581,1.849,5.19,5.19,0,0,0,3.6-4.8V9.6a10.211,10.211,0,0,0-2.625-6.584A9.91,9.91,0,0,0,90.561.192Z" transform="translate(-0.188 -0.188)"/>
</svg>
