<svg width="96" height="96" viewBox="0 0 96 96" fill="none" xmlns="http://www.w3.org/2000/svg">
<circle cx="47.9993" cy="48" r="48" fill="#FFEBD5"/>
<path d="M55.595 48.753C52.4974 45.426 49.5528 41.9843 47.0671 38.1601C45.308 35.4067 43.7401 32.3092 41.8662 30.3971C40.1836 28.638 39.1128 26.7641 38.5775 24.8521C34.8298 25.9228 32.2293 26.8406 28.8641 30.3588C5.42199 54.5275 39.3805 91.8513 65.4613 67.3002C67.3734 65.5029 66.685 63.3231 67.8323 61.3728C64.1993 57.1662 59.4191 52.8449 55.595 48.753Z" fill="#DE814B"/>
<path d="M65.4624 67.3003C41.2937 86.9182 7.64106 55.7513 28.8651 30.3206C29.2093 29.9382 29.5917 29.5176 29.9741 29.1352C34.8308 24.3167 40.2229 22.0605 45.5002 21.7163C46.0356 21.678 46.4563 22.0987 46.4945 22.5958C46.571 25.7317 48.5978 27.8349 51.5807 28.2556C52.0395 28.3321 52.3072 28.7527 52.1925 29.2116C51.8866 30.2059 51.7719 31.2767 51.7719 32.3857C51.8866 38.0072 56.5521 42.6344 62.1736 42.6727C63.3208 42.6727 64.4298 42.5197 65.5006 42.1755C65.9213 42.0226 66.3802 42.2903 66.4566 42.7492C67.145 46.4968 70.5485 45.8085 72.1546 45.2731C72.6135 45.1201 73.1107 45.3878 73.2254 45.8467C76.3612 57.281 65.4624 67.3003 65.4624 67.3003Z" fill="#F6B059"/>
<path d="M49.0551 43.1315C49.0551 45.9613 46.7606 47.8734 43.9307 47.8734C41.1008 47.8734 38.8063 45.9613 38.8063 43.1315C38.8063 40.3016 41.1008 38.0071 43.9307 38.0071C46.7606 38.0071 49.0551 40.2633 49.0551 43.1315Z" fill="#6D420D"/>
<path d="M65.155 55.4837C65.155 57.6635 63.3959 59.4226 61.2161 59.4226C59.0363 59.4226 57.5449 58.1224 57.5449 55.9426C57.5449 53.7628 59.0363 51.5066 61.2161 51.5066C63.3959 51.5066 65.155 53.304 65.155 55.4837Z" fill="#6D420D"/>
<path d="M35.7101 50.6651C35.7101 52.3478 34.4864 53.3038 32.8038 53.3038C31.1211 53.3038 29.668 52.3478 29.668 50.6651C29.668 48.9825 31.0064 47.644 32.6891 47.644C34.3717 47.644 35.7101 48.9825 35.7101 50.6651Z" fill="#6D420D"/>
<path d="M44.9626 60.9138C44.9626 61.6786 44.3508 62.2905 43.5859 62.2905C42.8211 62.2905 42.2092 61.6786 42.2092 60.9138C42.2092 60.149 42.8211 59.5371 43.5859 59.5371C44.3508 59.5371 44.9626 60.149 44.9626 60.9138Z" fill="#6D420D"/>
<path d="M35.632 34.4888C36.4768 34.4888 37.1616 33.8039 37.1616 32.9591C37.1616 32.1143 36.4768 31.4294 35.632 31.4294C34.7871 31.4294 34.1023 32.1143 34.1023 32.9591C34.1023 33.8039 34.7871 34.4888 35.632 34.4888Z" fill="#6D420D"/>
<path d="M63.2805 23.7812C63.4334 25.6168 61.8273 27.1082 59.6858 27.1082C57.5442 27.1082 55.8998 25.4638 56.0146 23.437C56.1293 21.4102 57.7354 19.9188 59.6093 20.11C61.4831 20.3012 63.1275 21.9074 63.2805 23.7812Z" fill="#F6B059"/>
<path d="M60.528 26.3815C61.3693 26.3815 62.1342 26.1521 62.746 25.7314C62.0959 26.5727 61.0252 27.1081 59.7249 27.1081C57.5834 27.1081 55.939 25.4637 56.0538 23.4751C56.1302 22.2514 56.7421 21.2189 57.6217 20.6453C57.201 21.2189 56.8951 21.9455 56.8568 22.7486C56.7803 24.6989 58.4247 26.3433 60.528 26.3815Z" fill="#DE814B"/>
<path d="M63.0894 34.1826C63.013 35.4063 61.9804 36.4389 60.7949 36.5536C59.6095 36.6301 58.6534 35.6358 58.6917 34.3356C58.6917 33.0354 59.7242 31.9646 60.9862 31.9646C62.2481 31.9646 63.1659 32.9589 63.0894 34.1826Z" fill="#F6B059"/>
<path d="M61.2522 36.0183C61.7111 35.9801 62.17 35.7888 62.5524 35.5212C62.1317 36.0948 61.4816 36.4772 60.755 36.5537C59.5695 36.6302 58.6517 35.6359 58.6517 34.3357C58.6517 33.5708 59.0341 32.8442 59.6078 32.4236C59.3401 32.806 59.1489 33.3031 59.1489 33.8003C59.1106 35.1005 60.0667 36.0948 61.2522 36.0183Z" fill="#DE814B"/>
<path d="M78.7301 35.139C78.6154 36.5922 77.4299 37.8159 76.0149 37.8924C74.6382 37.9689 73.5292 36.8216 73.5292 35.292C73.5675 33.7623 74.753 32.5386 76.2444 32.5386C77.7358 32.5386 78.8448 33.7241 78.7301 35.139Z" fill="#F6B059"/>
<path d="M76.5881 37.3189C77.1618 37.2807 77.6971 37.0513 78.1178 36.7071C77.6207 37.3954 76.8558 37.8543 76.0145 37.8926C74.6378 37.9691 73.5288 36.8218 73.5288 35.2921C73.5288 34.3743 73.9877 33.5713 74.6378 33.0359C74.2936 33.4948 74.1024 34.0684 74.1024 34.6803C74.1024 36.2482 75.2114 37.3954 76.5881 37.3189Z" fill="#DE814B"/>
</svg>
